<svg width="20" height="20" viewBox="0 0 20 20" fill="none" xmlns="http://www.w3.org/2000/svg">
<path d="M8.3335 9.33333C8.3335 8.78105 8.78121 8.33333 9.3335 8.33333H10.6668C11.2191 8.33333 11.6668 8.78105 11.6668 9.33333V15.6667C11.6668 16.219 11.2191 16.6667 10.6668 16.6667H9.3335C8.78121 16.6667 8.3335 16.219 8.3335 15.6667V9.33333Z" stroke="#121212" stroke-width="1.5" stroke-linecap="round" stroke-linejoin="round"/>
<path d="M3.3335 12.6667C3.3335 12.1144 3.78121 11.6667 4.3335 11.6667H5.66683C6.21911 11.6667 6.66683 12.1144 6.66683 12.6667V15.6667C6.66683 16.219 6.21911 16.6667 5.66683 16.6667H4.3335C3.78121 16.6667 3.3335 16.219 3.3335 15.6667V12.6667Z" stroke="#121212" stroke-width="1.5" stroke-linecap="round" stroke-linejoin="round"/>
<path d="M13.3335 6C13.3335 5.44772 13.7812 5 14.3335 5H15.6668C16.2191 5 16.6668 5.44772 16.6668 6V15.6667C16.6668 16.219 16.2191 16.6667 15.6668 16.6667H14.3335C13.7812 16.6667 13.3335 16.219 13.3335 15.6667V6Z" stroke="#121212" stroke-width="1.5" stroke-linecap="round" stroke-linejoin="round"/>
</svg>
