<svg width="98" height="32" viewBox="0 0 98 32" fill="none" xmlns="http://www.w3.org/2000/svg">
<rect x="2" y="2" width="28" height="28" rx="2" fill="white" stroke="#4D007D" stroke-width="4"/>
<path d="M43 22.5C42.4933 22.5 42.1 22.36 41.82 22.08C41.5533 21.8 41.42 21.4133 41.42 20.92V9.94C41.42 9.42 41.5533 9.02667 41.82 8.76C42.0867 8.49333 42.4733 8.36 42.98 8.36C43.4733 8.36 43.8533 8.49333 44.12 8.76C44.3867 9.02667 44.52 9.42 44.52 9.94V19.88H49.88C50.3067 19.88 50.6333 19.9933 50.86 20.22C51.1 20.4467 51.22 20.7667 51.22 21.18C51.22 21.6067 51.1 21.9333 50.86 22.16C50.6333 22.3867 50.3067 22.5 49.88 22.5H43ZM58.6436 22.72C57.2569 22.72 56.0369 22.42 54.9836 21.82C53.9436 21.2067 53.1303 20.3533 52.5436 19.26C51.9703 18.1667 51.6836 16.8933 51.6836 15.44C51.6836 14.3333 51.8436 13.34 52.1636 12.46C52.4969 11.5667 52.9703 10.8067 53.5836 10.18C54.1969 9.54 54.9303 9.04667 55.7836 8.7C56.6503 8.35333 57.6036 8.18 58.6436 8.18C60.0569 8.18 61.2836 8.48 62.3236 9.08C63.3636 9.68 64.1703 10.5267 64.7436 11.62C65.3303 12.7 65.6236 13.9667 65.6236 15.42C65.6236 16.5267 65.4569 17.5267 65.1236 18.42C64.7903 19.3133 64.3169 20.08 63.7036 20.72C63.0903 21.36 62.3569 21.8533 61.5036 22.2C60.6503 22.5467 59.6969 22.72 58.6436 22.72ZM58.6436 20.08C59.4303 20.08 60.0969 19.9 60.6436 19.54C61.2036 19.1667 61.6303 18.6333 61.9236 17.94C62.2303 17.2333 62.3836 16.4 62.3836 15.44C62.3836 13.9733 62.0569 12.84 61.4036 12.04C60.7503 11.2267 59.8303 10.82 58.6436 10.82C57.8703 10.82 57.2036 11 56.6436 11.36C56.0836 11.72 55.6569 12.2467 55.3636 12.94C55.0703 13.6333 54.9236 14.4667 54.9236 15.44C54.9236 16.8933 55.2503 18.0333 55.9036 18.86C56.5569 19.6733 57.4703 20.08 58.6436 20.08ZM75.0016 22.72C73.4149 22.72 72.0682 22.42 70.9616 21.82C69.8682 21.22 69.0349 20.38 68.4616 19.3C67.8882 18.22 67.6016 16.9533 67.6016 15.5C67.6016 14.38 67.7682 13.3733 68.1016 12.48C68.4482 11.5733 68.9416 10.8067 69.5816 10.18C70.2349 9.54 71.0216 9.04667 71.9416 8.7C72.8749 8.35333 73.9282 8.18 75.1016 8.18C75.8216 8.18 76.5416 8.26 77.2616 8.42C77.9816 8.58 78.6749 8.84667 79.3416 9.22C79.6216 9.38 79.8082 9.58667 79.9016 9.84C80.0082 10.08 80.0349 10.34 79.9816 10.62C79.9416 10.8867 79.8349 11.1267 79.6616 11.34C79.5016 11.54 79.2882 11.6733 79.0216 11.74C78.7682 11.7933 78.4749 11.74 78.1416 11.58C77.7016 11.34 77.2349 11.1667 76.7416 11.06C76.2482 10.94 75.7082 10.88 75.1216 10.88C74.1749 10.88 73.3816 11.06 72.7416 11.42C72.1016 11.7667 71.6216 12.2867 71.3016 12.98C70.9949 13.66 70.8416 14.5 70.8416 15.5C70.8416 17.0067 71.2016 18.1467 71.9216 18.92C72.6549 19.6933 73.7349 20.08 75.1616 20.08C75.6416 20.08 76.1349 20.0333 76.6416 19.94C77.1482 19.8467 77.6482 19.7133 78.1416 19.54L77.5616 20.8V16.96H75.7616C75.3616 16.96 75.0549 16.86 74.8416 16.66C74.6282 16.46 74.5216 16.1867 74.5216 15.84C74.5216 15.48 74.6282 15.2067 74.8416 15.02C75.0549 14.82 75.3616 14.72 75.7616 14.72H78.9016C79.3016 14.72 79.6016 14.8267 79.8016 15.04C80.0149 15.2533 80.1216 15.56 80.1216 15.96V20.6C80.1216 20.9467 80.0549 21.24 79.9216 21.48C79.7882 21.72 79.5616 21.8933 79.2416 22C78.6416 22.2133 77.9682 22.3867 77.2216 22.52C76.4749 22.6533 75.7349 22.72 75.0016 22.72ZM89.4053 22.72C88.0186 22.72 86.7986 22.42 85.7453 21.82C84.7053 21.2067 83.892 20.3533 83.3053 19.26C82.732 18.1667 82.4453 16.8933 82.4453 15.44C82.4453 14.3333 82.6053 13.34 82.9253 12.46C83.2586 11.5667 83.732 10.8067 84.3453 10.18C84.9586 9.54 85.692 9.04667 86.5453 8.7C87.412 8.35333 88.3653 8.18 89.4053 8.18C90.8186 8.18 92.0453 8.48 93.0853 9.08C94.1253 9.68 94.932 10.5267 95.5053 11.62C96.092 12.7 96.3853 13.9667 96.3853 15.42C96.3853 16.5267 96.2186 17.5267 95.8853 18.42C95.552 19.3133 95.0786 20.08 94.4653 20.72C93.852 21.36 93.1186 21.8533 92.2653 22.2C91.412 22.5467 90.4586 22.72 89.4053 22.72ZM89.4053 20.08C90.192 20.08 90.8586 19.9 91.4053 19.54C91.9653 19.1667 92.392 18.6333 92.6853 17.94C92.992 17.2333 93.1453 16.4 93.1453 15.44C93.1453 13.9733 92.8186 12.84 92.1653 12.04C91.512 11.2267 90.592 10.82 89.4053 10.82C88.632 10.82 87.9653 11 87.4053 11.36C86.8453 11.72 86.4186 12.2467 86.1253 12.94C85.832 13.6333 85.6853 14.4667 85.6853 15.44C85.6853 16.8933 86.012 18.0333 86.6653 18.86C87.3186 19.6733 88.232 20.08 89.4053 20.08Z" fill="#4D007D"/>
</svg>
